<svg id="Layer_1" data-name="Layer 1" xmlns="http://www.w3.org/2000/svg" viewBox="0 0 240.39 64.27"><title>uOttawa_HOR_BLACK</title><path d="M250.47,386a34.87,34.87,0,0,1-.22-4.45,8.83,8.83,0,0,1-7.7,4.68,5.77,5.77,0,0,1-5.76-3.64c-.43-1.17-.61-2.95-.61-6.72v-7.14c0-2.25-.17-3.16-.65-3.55-.26-.26-.65-.35-1.47-.39h-.78v-.95l6.71-.43c-.22,4-.26,5.06-.26,8.05v3.77c0,4.37.09,5.54.61,7.05a3.36,3.36,0,0,0,3.5,2.43c2.38,0,4.51-1.56,5.63-4.2.65-1.47.78-2.43.78-5.11v-6.67c0-2.29-.13-3.12-.65-3.51a2.16,2.16,0,0,0-1.47-.43h-.78v-.95l6.71-.43c-.13,3.24-.21,6.1-.21,8.05v8.18c0,4.33.39,5.11,2.63,5.11h.31v1Z" transform="translate(-160.04 -328.56)"/><path d="M267.7,358.68c2.6-3.26,6.36-4.94,11-4.94s8.4,1.64,11,4.94a17.75,17.75,0,0,1,3.6,11.34,17.47,17.47,0,0,1-3.6,11.29c-2.68,3.34-6.32,5-11,5a13.46,13.46,0,0,1-11-5,19.58,19.58,0,0,1,0-22.63Zm3.12,21.73a9,9,0,0,0,15.84,0,24.26,24.26,0,0,0,0-20.79,9,9,0,0,0-15.84,0,24.26,24.26,0,0,0,0,20.79Z" transform="translate(-160.04 -328.56)"/><path d="M303.21,379.59c0,2.55.12,3.68.56,4.28a2.39,2.39,0,0,0,2.12.91,5.05,5.05,0,0,0,2.72-.78l.4,1.13a9.19,9.19,0,0,1-4.38,1.08c-2.12,0-3.72-.74-4.46-2.12-.48-.87-.6-1.82-.6-5V365h-2.73v-1c2.55-.22,3.85-1.9,4.5-6l2-.57c-.08,1.86-.12,3.51-.12,6.37h5.19V365h-5.19Z" transform="translate(-160.04 -328.56)"/><path d="M317.48,379.59c0,2.55.12,3.68.56,4.28a2.39,2.39,0,0,0,2.12.91,5.08,5.08,0,0,0,2.73-.78l.39,1.13a9.15,9.15,0,0,1-4.37,1.08c-2.13,0-3.73-.74-4.46-2.12-.48-.87-.61-1.82-.61-5V365h-2.73v-1c2.56-.22,3.85-1.9,4.5-6l2-.57c-.08,1.86-.12,3.51-.12,6.37h5.2V365h-5.2Z" transform="translate(-160.04 -328.56)"/><path d="M346.4,385.65a36.63,36.63,0,0,1-4.46.43c-1.3,0-1.64-.69-1.82-3.59a10.8,10.8,0,0,1-2.12,1.86,8.59,8.59,0,0,1-5.63,1.86,6.6,6.6,0,0,1-4.41-1.34,6.22,6.22,0,0,1-1.91-4.59c0-3.42,2.17-5.63,6.37-6.58a46.67,46.67,0,0,1,7.7-1v-2.73a8.81,8.81,0,0,0-.6-3.94c-.57-1.13-1.78-1.69-3.55-1.69-2.86,0-4.34,1.3-4.51,4,0,.91-.13,1.21-.47,1.47a2.8,2.8,0,0,1-1.52.34c-1.47,0-2.12-.39-2.12-1.29,0-1.57,1.12-3.12,2.94-4.16a13,13,0,0,1,6.32-1.39c2.77,0,4.77.65,5.81,1.91.86,1.07,1.25,2.51,1.25,4.89,0,.13,0,.13-.09,4.37l0,4.12,0,2a9.55,9.55,0,0,0,.48,3.72c.26.35.77.48,2.42.48Zm-6.28-12c-3.85.35-5.54.7-7.27,1.56a5.11,5.11,0,0,0-2.9,4.94c0,2.73,1.47,4.59,3.63,4.59a6.67,6.67,0,0,0,5.55-3.16c.69-1.21,1-3,1-5.89Z" transform="translate(-160.04 -328.56)"/><path d="M357.22,385.91H355l-5.37-18c-.73-2.47-1.25-3-3.37-3.12v-.95h9.61v.95c-2.08.08-2.9.52-2.9,1.6a8.43,8.43,0,0,0,.39,1.91l3.89,13.59,5.72-17.49h1.77l5.5,17.49L374,369.2a8.8,8.8,0,0,0,.52-2.52,1.6,1.6,0,0,0-1.21-1.56,6.89,6.89,0,0,0-2-.3v-.95h8.48v.95c-2.38.13-3.2,1-4.24,4.29l-5.24,16.8h-2.2l-5.41-16.63Z" transform="translate(-160.04 -328.56)"/><path d="M400.43,385.65a36.46,36.46,0,0,1-4.46.43c-1.29,0-1.64-.69-1.81-3.59a11.41,11.41,0,0,1-2.12,1.86,8.62,8.62,0,0,1-5.63,1.86,6.61,6.61,0,0,1-4.42-1.34,6.21,6.21,0,0,1-1.9-4.59c0-3.42,2.16-5.63,6.36-6.58a46.65,46.65,0,0,1,7.71-1v-2.73a8.78,8.78,0,0,0-.61-3.94c-.56-1.13-1.77-1.69-3.55-1.69-2.86,0-4.33,1.3-4.5,4-.05.91-.13,1.21-.48,1.47a2.76,2.76,0,0,1-1.52.34c-1.47,0-2.11-.39-2.11-1.29,0-1.57,1.12-3.12,2.94-4.16a13,13,0,0,1,6.32-1.39c2.77,0,4.76.65,5.8,1.91.87,1.07,1.26,2.51,1.26,4.89,0,.13,0,.13-.09,4.37l0,4.12-.05,2a9.76,9.76,0,0,0,.48,3.72c.26.35.78.48,2.42.48Zm-6.27-12c-3.86.35-5.55.7-7.28,1.56a5.12,5.12,0,0,0-2.9,4.94c0,2.73,1.47,4.59,3.64,4.59a6.64,6.64,0,0,0,5.54-3.16c.69-1.21,1-3,1-5.89Z" transform="translate(-160.04 -328.56)"/><path d="M173.75,336h-6.93v3.63H160v53.24h56V339.59h-6.78V336h-6.93c-2.95-4.77-8-7.4-14.28-7.4S176.7,331.19,173.75,336Zm.81,3h.89l.42-.77c3-5.48,8.26-6.62,12.16-6.62s9.18,1.14,12.16,6.62l.42.77h5.65v3.64H213v47.28H163V342.57h6.78v-3.64Z" transform="translate(-160.04 -328.56)"/><polygon points="6.08 53.31 49.89 53.31 49.89 54.95 6.08 54.95 6.08 53.31 6.08 53.31"/><path d="M188,382.69" transform="translate(-160.04 -328.56)"/><polygon points="4.8 56.18 51.18 56.18 51.18 57.82 4.8 57.82 4.8 56.18 4.8 56.18"/><path d="M188,385.56" transform="translate(-160.04 -328.56)"/><path d="M187.53,345.92l-21.91,7.87,1,2.8L188,348.9l21.4,7.69,1-2.8L188,345.73Z" transform="translate(-160.04 -328.56)"/><path d="M206.9,377.26l-.41-16.69a.92.92,0,0,0,1.1-1.46h.75v-1.64H167.72v1.64h.74a.92.92,0,0,0,1.08,1.47l-.4,16.68H167.6V380h40.85v-2.73Zm-29.27,0h-4.69l-.4-16.68a.93.93,0,0,0,.42.1.93.93,0,0,0,.66-1.57H177a.92.92,0,0,0,1.08,1.47Zm8.5,0h-4.7l-.4-16.68a1,1,0,0,0,.42.1.93.93,0,0,0,.66-1.57h3.35a.89.89,0,0,0-.27.64.93.93,0,0,0,.93.93,1,1,0,0,0,.42-.1Zm8.48,0h-4.68l-.4-16.67a.86.86,0,0,0,.39.09.93.93,0,0,0,.93-.93.89.89,0,0,0-.27-.64h3.35a.93.93,0,0,0,.66,1.57,1,1,0,0,0,.43-.1Zm8.49,0h-4.68L198,360.58a1,1,0,0,0,.41.1.93.93,0,0,0,.67-1.57h3.34a.93.93,0,0,0,.67,1.57,1,1,0,0,0,.41-.1Z" transform="translate(-160.04 -328.56)"/></svg>